<?xml version="1.0" encoding="utf-8"?>
<!-- Generator: Adobe Illustrator 25.3.0, SVG Export Plug-In . SVG Version: 6.00 Build 0)  -->
<svg version="1.1" id="Layer_1" xmlns="http://www.w3.org/2000/svg" xmlns:xlink="http://www.w3.org/1999/xlink" x="0px" y="0px"
	 viewBox="0 0 212.6 212.6" style="enable-background:new 0 0 212.6 212.6;" xml:space="preserve">
<g>
	
		<image style="overflow:visible;" width="911" height="911" xlink:href="37A9CAFE.png"  transform="matrix(0.24 0 0 0.24 -3.0208 -3.0208)">
	</image>
	<path d="M106.3,197.4c-24.3,0-47.2-9.5-64.4-26.7c-17.2-17.2-26.7-40.1-26.7-64.4c0-24.4,9.5-47.3,26.7-64.5
		c17.2-17.2,40.1-26.7,64.4-26.7c0,0,0,0,0,0c50.2,0,91.1,40.9,91.1,91.1l-6.7,0l6.7,0c0,24.3-9.5,47.2-26.7,64.4
		C153.5,187.9,130.6,197.4,106.3,197.4C106.3,197.4,106.3,197.4,106.3,197.4z M106.3,28.7C106.3,28.7,106.3,28.7,106.3,28.7
		c-20.7,0-40.2,8.1-54.9,22.7c-14.7,14.7-22.7,34.1-22.7,54.9c0,20.8,8.1,40.3,22.7,54.9c14.7,14.6,34.1,22.7,54.9,22.7c0,0,0,0,0,0
		c20.7,0,40.2-8.1,54.9-22.7s22.7-34.2,22.7-54.9c0,0,0,0,0,0v0C183.9,63.5,149.1,28.7,106.3,28.7z"/>
	<path d="M117.4,106.3c0,10-1.9,18.9-5,25.5v23.4c0,1.5-0.9,2.9-2.2,3.5c-0.5,0.2-1.1,0.4-1.6,0.4c-0.9,0-1.8-0.3-2.5-0.9
		l-33.8-27.8c-0.1,0-0.2,0-0.3,0H47.6c-4.1,0-7.4-3.3-7.4-7.4V89.6c0-4.1,3.3-7.4,7.4-7.4H72c0.1,0,0.2,0,0.2,0l33.8-27.8
		c1.2-1,2.8-1.2,4.1-0.5c1.4,0.6,2.2,2,2.2,3.5v23.4C115.5,87.4,117.4,96.3,117.4,106.3z"/>
	<path d="M130.8,140.3c-1.2,0-2.5-0.4-3.6-1.2c-2.7-2-3.2-5.7-1.2-8.4c5.2-6.9,8.1-15.5,8.2-24.2c0.1-8.8-2.7-17.6-7.8-24.7
		c-1.9-2.7-1.3-6.4,1.4-8.4c2.7-1.9,6.4-1.3,8.4,1.4c6.6,9.2,10.2,20.5,10.1,31.9c-0.1,11.1-3.9,22.2-10.5,31.2
		C134.5,139.4,132.6,140.3,130.8,140.3z"/>
	<path d="M152.3,150.6c-1.6,0-3.3-0.5-4.7-1.5c-3.5-2.6-4.2-7.5-1.6-11c6.7-9,10.5-20.2,10.6-31.5c0.1-11.5-3.5-22.9-10.2-32.3
		c-2.5-3.5-1.7-8.4,1.8-10.9c3.5-2.5,8.4-1.7,10.9,1.8c8.7,12,13.3,26.8,13.2,41.6c-0.2,14.5-5.1,29-13.7,40.7
		C157.1,149.5,154.7,150.6,152.3,150.6z"/>
</g>
</svg>
